<svg width="40" height="40" viewBox="0 0 40 40" fill="none" xmlns="http://www.w3.org/2000/svg">
<path d="M20 40C14.6957 40 9.60859 37.8929 5.85786 34.1421C2.10714 30.3914 0 25.3043 0 20C0 14.6957 2.10714 9.60859 5.85786 5.85786C9.60859 2.10714 14.6957 0 20 0C25.3043 0 30.3914 2.10714 34.1421 5.85786C37.8929 9.60859 40 14.6957 40 20C40 25.3043 37.8929 30.3914 34.1421 34.1421C30.3914 37.8929 25.3043 40 20 40Z" fill="#660099"/>
<path fill-rule="evenodd" clip-rule="evenodd" d="M31.54 19.4892C31.4489 16.7076 30.2863 14.0687 28.2954 12.124C26.3044 10.1792 23.639 9.07902 20.8559 9.0532C18.0729 9.02738 15.3875 10.0779 13.3608 11.9854C11.3341 13.8929 10.1228 16.5097 9.98004 19.2892C9.98004 19.4492 9.98004 19.5992 9.98004 19.7592C9.96822 21.7078 10.4867 23.6228 11.48 25.2992L9.54004 31.0392L15.54 29.1392C17.177 30.0419 19.0205 30.5038 20.8897 30.4797C22.759 30.4555 24.5899 29.9461 26.203 29.0014C27.8161 28.0567 29.1562 26.7092 30.0918 25.0907C31.0274 23.4723 31.5264 21.6386 31.54 19.7692C31.5454 19.676 31.5454 19.5825 31.54 19.4892ZM20.76 28.7592C18.9828 28.7671 17.243 28.2487 15.76 27.2692L12.27 28.3792L13.4 25.0392C12.2845 23.5045 11.6825 21.6565 11.68 19.7592C11.6648 19.4694 11.6648 19.179 11.68 18.8892C11.9241 16.6499 12.9918 14.5813 14.6757 13.0852C16.3596 11.5891 18.5396 10.7722 20.792 10.7934C23.0445 10.8146 25.2086 11.6723 26.8641 13.1998C28.5196 14.7274 29.5481 16.8157 29.75 19.0592C29.75 19.2892 29.75 19.5192 29.75 19.7592C29.75 22.1444 28.8032 24.4321 27.1175 26.1197C25.4319 27.8072 23.1453 28.7566 20.76 28.7592Z" fill="white"/>
<path fill-rule="evenodd" clip-rule="evenodd" d="M25.7 21.9196C25.43 21.7896 24.14 21.1496 23.89 21.0696C23.64 20.9896 23.48 20.9396 23.3 21.1996C23.12 21.4596 22.61 22.0496 22.46 22.1996C22.31 22.3496 22.15 22.3996 21.88 22.2696C21.1023 21.9645 20.3846 21.5244 19.76 20.9696C19.1823 20.4393 18.6869 19.8259 18.29 19.1496C18.2621 19.1077 18.2427 19.0606 18.2332 19.0112C18.2236 18.9617 18.2239 18.9109 18.2341 18.8616C18.2444 18.8122 18.2643 18.7654 18.2928 18.7239C18.3213 18.6824 18.3577 18.6469 18.4 18.6196C18.53 18.4996 18.67 18.3096 18.8 18.1596L18.9 18.0296C18.9651 17.9311 19.0219 17.8274 19.07 17.7196C19.1077 17.6488 19.1274 17.5698 19.1274 17.4896C19.1274 17.4094 19.1077 17.3304 19.07 17.2596C19 17.1296 18.47 15.8396 18.25 15.3096C18.03 14.7796 17.81 14.8796 17.65 14.8796C17.49 14.8796 17.32 14.8796 17.15 14.8796C17.0156 14.884 16.8834 14.9155 16.7614 14.9722C16.6394 15.0289 16.5301 15.1096 16.44 15.2096C16.1428 15.4905 15.9074 15.8304 15.749 16.2075C15.5906 16.5846 15.5126 16.9906 15.52 17.3996C15.5225 17.7008 15.5663 18.0002 15.65 18.2896C15.8539 18.9487 16.1758 19.5654 16.6 20.1096C17.6949 21.8425 19.2587 23.2295 21.11 24.1096C23.8 25.1096 23.8 24.7996 24.29 24.7596C24.6585 24.6896 25.0078 24.5419 25.3147 24.3264C25.6217 24.1109 25.8791 23.8324 26.07 23.5096C26.2403 23.1164 26.2957 22.683 26.23 22.2596C26.08 22.1093 25.8992 21.9933 25.7 21.9196Z" fill="white"/>
</svg>
